<svg width="90" height="100" viewBox="0 0 60 70" fill="none" xmlns="http://www.w3.org/2000/svg"><g clip-path="url(#clip0)"><path fill-rule="evenodd" clip-rule="evenodd" d="M33.8028 10.1626 39.1358 19.3496C39.2178 19.3496 39.2178 19.3496 39.2999 19.3496L41.1869 12.5204V12.4391C38.4794 10.8943 35.936 9.51222 33.1465 9.02442L32.8183 9.10572C30.521 10.3252 28.4698 11.626 26.6648 12.8456L28.798 9.18702 28.9621 8.94312C26.0905 9.43092 23.6292 10.9756 21.0037 12.6017V12.683L22.8907 19.3496 26.6648 12.7643C28.9621 11.8699 31.3414 10.9756 33.8028 10.1626zM49.3915 16.6667 47.5865 23.0895C51.4426 25.2033 55.4629 20.1626 59.1549 18.8618 55.2988 18.6179 52.181 17.7236 49.3915 16.6667zM14.358 22.683 12.7991 17.0732C10.4198 17.9675 7.71229 18.6179 4.34842 18.8618 6.97388 19.7561 10.1737 22.5204 14.358 22.683zM40.6947 28.2114C40.2844 29.5122 39.0537 30.4878 37.1667 30.6504H37.0026C35.3617 30.7317 33.9669 30.0813 32.9003 29.1057 31.8337 28.1301 31.1774 26.8293 31.0953 25.5285V25.4472C31.0953 24.7968 31.1774 24.0651 31.3414 23.4147 31.5055 22.9269 31.6696 22.4391 31.9978 22.0325L31.0133 20.3252 26.3367 28.6992C27.3212 29.187 28.3878 29.7561 29.5364 30.3252 32.6542 31.9512 36.1001 33.7399 39.1358 33.6586 42.1715 33.5773 45.1251 31.7886 47.9967 30 49.8838 28.8618 51.6888 27.8049 53.5758 27.1545 51.0324 26.3415 48.3249 24.7968 45.7815 23.4147 43.6483 22.1951 41.7612 21.1382 40.3665 20.7317 39.1358 20.4065 38.0692 20.2439 37.1667 20.3252 35.854 20.4065 34.7874 20.813 33.9669 21.3821 33.1465 21.9512 32.6542 22.8456 32.408 23.7399 32.2439 24.2277 32.1619 24.7968 32.2439 25.3659V25.4472C32.326 26.5041 32.9003 27.561 33.7208 28.374 34.5412 29.187 35.6899 29.6748 37.0026 29.5935H37.0846C38.4794 29.5122 39.2999 28.7805 39.6281 27.8862 39.7921 27.4797 39.7921 27.1545 39.7921 26.748 39.7101 25.122 38.2333 24.1464 36.5924 24.2277 39.2178 23.0895 41.5972 25.5285 40.6947 28.2114zM14.9323 33.7399C14.9323 33.0895 15.0144 32.3578 15.1784 31.7073 15.4246 30.9756 15.7528 30.2439 16.3271 29.5935L14.5221 23.1708C9.10707 24.7155 6.6457 28.8618.0 29.7561 7.30206 30.2439 11.6505 41.7886 20.7576 41.7886 27.8135 41.7886 32.9003 36.6667 37.8231 34.6342 34.8694 34.309 31.8337 32.683 29.0442 31.2195 27.2392 30.2439 25.5982 29.4309 24.2035 29.0244 22.9728 28.6992 21.9062 28.5366 21.0037 28.6179 19.691 28.6992 18.6244 29.1057 17.8039 29.6748 16.9835 30.2439 16.4912 31.1382 16.245 32.0326 16.081 32.5204 15.9989 33.0895 16.081 33.6586V33.7399C16.163 34.7968 16.7373 35.8537 17.5578 36.6667 18.3782 37.4797 19.5269 37.9675 20.8396 37.8862H20.9216C22.3164 37.8049 23.1369 37.0732 23.4651 36.1789 24.2035 34.1464 22.5626 32.2765 20.4294 32.4391 22.9728 31.3821 25.5162 33.8212 24.5317 36.5041 24.0394 37.8049 22.8907 38.7805 21.0037 38.9431H20.8396C19.1987 39.0244 17.8039 38.374 16.7373 37.3984 15.6707 36.4228 15.0144 35.122 14.9323 33.8212V33.7399z" fill="#8dd7f7"/><path fill-rule="evenodd" clip-rule="evenodd" d="M28.7982 9.18699 26.665 12.8455 22.8909 19.4309 21.0039 12.7642 17.3939.0H8.04065L12.7993 17.0732 14.3582 22.6829 14.5223 23.252 16.3273 29.6748C16.5734 29.4309 16.8195 29.1057 17.1477 28.9431 18.1323 28.2114 19.363 27.7236 20.9218 27.6423 21.9884 27.561 23.2191 27.7236 24.5318 28.1301 25.1061 28.2927 25.7625 28.5366 26.3368 28.7805L31.0134 20.3252 31.9159 22.0325C32.2441 21.4634 32.7364 20.9756 33.2287 20.5691 34.2132 19.8374 35.4439 19.3496 37.0028 19.2683 37.6591 19.2683 38.3155 19.2683 38.9719 19.3496L33.6389 10.1626C31.1775 10.9756 28.7982 11.8699 26.5009 12.9268 28.388 11.626 30.3571 10.4065 32.6543 9.18699 32.7364 9.10569 32.8184 9.10569 32.9825 9.02439L30.8493 5.36585 28.7982 9.18699zM40.6948 19.6748C42.2537 20.0813 44.2228 21.2195 46.356 22.439 46.7662 22.6829 47.0944 22.8455 47.5046 23.0894L49.3096 16.6667 52.3453 5.93496C50.048 6.26016 46.5201 6.91057 42.4998 7.80488L41.1871 12.5203 39.3001 19.3496C39.7103 19.4309 40.2026 19.5122 40.6948 19.6748zM43.3203 4.87805C46.2739 3.98374 49.5558 3.33333 53.2478 2.92683L54.0683.0H44.633L43.3203 4.87805z" fill="#33629a"/><path d="M46.766 65.2033C47.3404 65.5285 48.0788 65.7724 48.8992 66.0163 49.8017 66.2602 50.6222 66.4228 51.6067 66.4228 52.5913 66.4228 53.4117 66.2602 53.904 65.8537 54.3963 65.4472 54.6424 64.9594 54.6424 64.3089 54.6424 63.7398 54.3963 63.1707 53.904 62.8455 53.4117 62.439 52.5913 62.0325 51.4426 61.626 49.8017 61.0569 48.571 60.3252 47.5865 59.4309 46.6019 58.5366 46.1097 57.3171 46.1097 55.935 46.1097 55.122 46.2738 54.3902 46.6019 53.6585 46.9301 52.9268 47.4224 52.3577 48.0788 51.8699 48.7351 51.3821 49.4735 50.9756 50.376 50.6504 51.2785 50.3252 52.3451 50.2439 53.4117 50.2439 54.5604 50.2439 55.4629 50.3252 56.2833 50.5691 57.1038 50.7317 57.7601 50.9756 58.3345 51.2195L57.3499 54.7154C56.9397 54.5528 56.4474 54.3089 55.7911 54.1463 55.1347 53.9024 54.3142 53.8211 53.3297 53.8211 52.3451 53.8211 51.6888 53.9837 51.1965 54.3902 50.7042 54.7967 50.5401 55.2033 50.5401 55.6911 50.5401 56.0163 50.6222 56.2602 50.7042 56.5041 50.8683 56.748 51.0324 56.9919 51.3606 57.1545 51.6888 57.3171 52.017 57.561 52.5092 57.7236 52.9195 57.8862 53.4938 58.1301 54.1501 58.374 55.8731 59.0244 57.1038 59.7561 57.9242 60.6504 58.7447 61.5447 59.1549 62.6829 59.1549 64.065 59.1549 64.8781 58.9908 65.6098 58.6627 66.3415 58.3345 67.0732 57.8422 67.7236 57.1858 68.2114 56.5295 68.7805 55.709 69.187 54.7245 69.5122 53.7399 69.8374 52.5913 70 51.2785 70 50.1299 70 49.1454 69.8374 48.0788 69.5935 47.0942 69.3496 46.2738 69.1057 45.7815 68.7805L46.766 65.2033zM43.156 68.7805C42.8278 68.8618 42.4176 69.0244 41.9253 69.1057 41.4331 69.2683 40.9408 69.3496 40.3665 69.4309 39.7921 69.5122 39.2178 69.6748 38.5615 69.6748 37.9051 69.7561 37.3308 69.7561 36.6744 69.7561 34.8694 69.7561 33.3926 69.5122 32.0799 69.1057 30.7671 68.6992 29.7005 68.0488 28.798 67.1545 27.8955 66.2602 27.2392 65.2846 26.7469 64.065 26.2546 62.8455 26.0085 61.5447 26.0085 60.1626 26.0085 58.5366 26.2546 57.1545 26.8289 55.935 27.4033 54.7154 28.1417 53.6585 29.1262 52.7642 30.1108 51.8699 31.2594 51.2195 32.6542 50.813 33.9669 50.4065 35.4437 50.1626 37.0846 50.1626 38.3153 50.1626 39.464 50.2439 40.3665 50.4878 41.269 50.6504 42.0074 50.8943 42.4997 51.1382L41.5972 54.6341C41.0228 54.3902 40.4485 54.2276 39.7921 54.065 39.1358 53.9024 38.2333 53.8211 37.1667 53.8211 36.2642 53.8211 35.3617 53.9837 34.6233 54.2276 33.8028 54.4715 33.1465 54.878 32.5721 55.3659 31.9978 55.8537 31.5876 56.5041 31.2594 57.3171 30.9312 58.1301 30.7671 59.0244 30.7671 60.0813 30.7671 61.0569 30.9312 61.9512 31.1774 62.7642 31.5055 63.5772 31.9158 64.2276 32.408 64.7154 32.9824 65.2846 33.6387 65.6911 34.3771 65.935 35.1155 66.1789 35.936 66.3415 36.8385 66.3415 37.3308 66.3415 37.741 66.3415 38.1512 66.2602 38.5615 66.1789 38.8076 66.1789 38.9717 66.0976V62.0325H36.018V58.6179H43.2381V68.7805H43.156zM4.59456 69.6748.0 50.4878H4.6766L6.15343 58.374C6.39956 59.5122 6.56365 60.7317 6.80979 61.8699 6.97388 63.0081 7.22002 64.1463 7.30206 65.122H7.38411C7.5482 64.065 7.71229 63.0081 7.95843 61.8699 8.20457 60.7317 8.4507 59.5935 8.69684 58.374L10.3378 50.5691H15.0144L16.5732 58.6179C16.8194 59.7561 16.9835 60.813 17.1475 61.8699 17.3116 62.9268 17.4757 63.9837 17.6398 65.0407H17.7219C17.886 63.9837 18.05 62.8455 18.2141 61.7886 18.3782 60.6504 18.6244 59.5122 18.7885 58.374L20.3473 50.5691H24.7778L19.691 69.6748H14.9323L13.2914 61.3821C13.1273 60.4065 12.9632 59.4309 12.7991 58.5366 12.635 57.561 12.553 56.5854 12.3889 55.4472H12.3069C12.1428 56.5041 11.9787 57.561 11.8146 58.4553 11.6505 59.4309 11.4043 60.3252 11.2403 61.3008L9.43525 69.5935H4.59456V69.6748z" fill="#33629a"/></g><defs><clipPath id="clip0"><path d="M0 0h59.1549v70H0z" fill="#fff"/></clipPath></defs></svg>